<svg width="26" height="26" viewBox="0 0 26 26" fill="none" xmlns="http://www.w3.org/2000/svg">
<g clip-path="url(#clip0_2001_338)">
<path d="M22.059 8.12787C21.9152 8.2414 19.3768 9.6971 19.3768 12.934C19.3768 16.6779 22.6069 18.0024 22.7035 18.0352C22.6887 18.116 22.1904 19.8492 21.0005 21.6152C19.9395 23.1693 18.8314 24.7209 17.1458 24.7209C15.4601 24.7209 15.0263 23.7244 13.0803 23.7244C11.1839 23.7244 10.5096 24.7537 8.96772 24.7537C7.42581 24.7537 6.34995 23.3156 5.11296 21.5496C3.68013 19.4758 2.52246 16.2541 2.52246 13.1963C2.52246 8.29185 5.65585 5.69076 8.73965 5.69076C10.3782 5.69076 11.7441 6.78569 12.7729 6.78569C13.7521 6.78569 15.2791 5.62516 17.1433 5.62516C17.8498 5.62516 20.3882 5.69076 22.059 8.12787ZM16.2583 3.54883C17.0292 2.61788 17.5746 1.32616 17.5746 0.0344441C17.5746 -0.144681 17.5597 -0.326329 17.5275 -0.472656C16.2732 -0.424721 14.7808 0.377557 13.881 1.43969C13.1745 2.25711 12.5151 3.54883 12.5151 4.8582C12.5151 5.05499 12.5473 5.25177 12.5622 5.31485C12.6415 5.32998 12.7704 5.34764 12.8993 5.34764C14.0248 5.34764 15.4402 4.58069 16.2583 3.54883Z" fill="black"/>
</g>
<defs>
<clipPath id="clip0_2001_338">
<rect width="25.2264" height="25.2264" fill="white"/>
</clipPath>
</defs>
</svg>
