<svg width="53" height="53" viewBox="0 0 53 53" fill="none" xmlns="http://www.w3.org/2000/svg">
<path d="M17.7343 8.04352C15.604 7.78228 13.5716 9.09785 12.908 11.1895C10.821 17.7677 9.7828 22.6616 9.02135 29.4953C8.78137 31.6491 10.069 33.6579 12.0873 34.3056C13.9382 34.8996 15.6724 35.4255 17.3427 35.8947C19.042 36.3719 20.4395 37.6116 21.0848 39.2843L22.0036 41.6659C22.2428 42.2858 23.0251 42.4521 23.4957 41.9831L25.2972 40.1876C26.5685 38.9206 28.3517 38.357 30.1001 38.613C31.8222 38.8651 33.6209 39.089 35.5513 39.2965C37.6492 39.522 39.6335 38.2197 40.2926 36.1658C42.4009 29.5953 43.429 24.6937 44.1884 17.8319C44.4295 15.6535 43.1096 13.628 41.06 13.0003C32.5831 10.4041 26.5411 9.1235 17.7343 8.04352Z" stroke="#282930" stroke-width="2"/>
<path d="M20.0637 19.1885L34.4099 22.2378" stroke="#282930" stroke-width="2" stroke-linecap="round"/>
<path d="M18.7297 25.4648L29.4894 27.7519" stroke="#282930" stroke-width="2" stroke-linecap="round"/>
</svg>
