<svg width="55" height="55" viewBox="0 0 55 55" fill="none" xmlns="http://www.w3.org/2000/svg">
<path d="M19.728 35.2517L20.1492 34.3447L19.728 35.2517ZM23.3136 40.7003L24.1397 40.1368L24.1397 40.1368L23.3136 40.7003ZM21.6365 33.6861L20.6464 33.5455L20.6428 33.5711L20.6405 33.5968L21.6365 33.6861ZM22.0671 31.8529L21.1031 31.5872L22.0671 31.8529ZM28.3429 44.6955L27.9745 45.6252L28.3429 44.6955ZM30.9787 43.2811L30.8458 44.2722L30.9787 43.2811ZM29.1203 30.5329C28.5894 30.3807 28.0356 30.6877 27.8834 31.2186C27.7311 31.7495 28.0381 32.3032 28.569 32.4555L29.1203 30.5329ZM35.6183 34.4768C36.1491 34.629 36.7029 34.3221 36.8552 33.7912C37.0074 33.2603 36.7004 32.7065 36.1695 32.5543L35.6183 34.4768ZM27.8569 34.9387C27.3261 34.7865 26.7723 35.0935 26.62 35.6243C26.4678 36.1552 26.7748 36.709 27.3057 36.8612L27.8569 34.9387ZM34.3549 38.8826C34.8858 39.0348 35.4396 38.7279 35.5918 38.197C35.744 37.6661 35.4371 37.1123 34.9062 36.9601L34.3549 38.8826ZM12.2518 19.5222L13.213 19.7979C15.0653 13.3384 22.0366 9.60296 28.8404 11.5539L29.116 10.5926L29.3917 9.63138C21.5963 7.39611 13.4669 11.6565 11.2905 19.2466L12.2518 19.5222ZM19.728 35.2517L20.1492 34.3447C14.5638 31.751 11.5454 25.6135 13.213 19.7979L12.2518 19.5222L11.2905 19.2466C9.3318 26.0775 12.8942 33.1808 19.3069 36.1587L19.728 35.2517ZM29.116 10.5926L28.8404 11.5539C36.1563 13.6517 39.6544 20.3543 37.5471 27.4453L38.5056 27.7302L39.4642 28.015C41.8816 19.8807 37.7991 12.0422 29.3917 9.63138L29.116 10.5926ZM20.6532 37.1719L19.6919 36.8962C19.3195 38.1949 20.0444 39.6973 21.528 39.9592L21.7018 38.9744L21.8756 37.9896C21.7799 37.9727 21.7045 37.9193 21.6522 37.8274C21.5967 37.7298 21.5727 37.5929 21.6144 37.4475L20.6532 37.1719ZM19.728 35.2517L19.3069 36.1587C19.6355 36.3113 19.7644 36.6433 19.6919 36.8962L20.6532 37.1719L21.6144 37.4475C21.9874 36.1467 21.2725 34.8663 20.1492 34.3447L19.728 35.2517ZM41.5758 36.9796L42.5371 37.2553C44.1002 31.8042 40.455 26.1542 34.6665 24.4944L34.3909 25.4557L34.1152 26.417C39.0328 27.827 41.8212 32.496 40.6146 36.704L41.5758 36.9796ZM30.9787 43.2811L30.8458 44.2722C36.052 44.9705 41.1312 42.1582 42.5371 37.2553L41.5758 36.9796L40.6146 36.704C39.5274 40.4955 35.5063 42.8794 31.1117 42.29L30.9787 43.2811ZM28.3429 44.6955L28.7113 43.7659C26.8458 43.0266 25.2465 41.7593 24.1397 40.1368L23.3136 40.7003L22.4875 41.2638C23.8257 43.2256 25.748 44.7429 27.9745 45.6252L28.3429 44.6955ZM23.3136 40.7003L24.1397 40.1368C22.8637 38.2659 22.4123 36.2307 22.6325 33.7754L21.6365 33.6861L20.6405 33.5968C20.3856 36.4388 20.9111 38.9526 22.4875 41.2638L23.3136 40.7003ZM22.0671 31.8529L21.1031 31.5872C20.9793 32.0361 20.7251 32.9915 20.6464 33.5455L21.6365 33.6861L22.6265 33.8267C22.6837 33.424 22.8989 32.5983 23.0311 32.1187L22.0671 31.8529ZM34.3909 25.4557L34.6665 24.4944C28.4152 22.7019 22.7151 25.7397 21.1031 31.5872L22.0671 31.8529L23.0311 32.1187C24.3213 27.4389 28.8361 24.9032 34.1152 26.417L34.3909 25.4557ZM29.6773 44.0457L28.7161 43.77C28.7159 43.7705 28.7159 43.7702 28.7163 43.7696C28.7167 43.7689 28.717 43.7684 28.7173 43.7682C28.7176 43.7678 28.7174 43.7681 28.7167 43.7684C28.7162 43.7687 28.7168 43.7683 28.7183 43.7682C28.719 43.7682 28.7193 43.7683 28.7188 43.7682C28.7183 43.7681 28.7159 43.7677 28.7113 43.7659L28.3429 44.6955L27.9745 45.6252C29.1015 46.0719 30.3194 45.4343 30.6386 44.3213L29.6773 44.0457ZM30.9787 43.2811L31.1117 42.29C30.1435 42.1601 29.0331 42.6643 28.7161 43.77L29.6773 44.0457L30.6386 44.3213C30.6386 44.3212 30.6384 44.3218 30.638 44.3225C30.6377 44.3232 30.6377 44.323 30.6387 44.3218C30.6407 44.3193 30.6483 44.311 30.6655 44.3011C30.7026 44.2798 30.767 44.2616 30.8458 44.2722L30.9787 43.2811ZM28.8446 31.4942L28.569 32.4555L35.6183 34.4768L35.8939 33.5155L36.1695 32.5543L29.1203 30.5329L28.8446 31.4942ZM27.5813 35.9L27.3057 36.8612L34.3549 38.8826L34.6306 37.9213L34.9062 36.9601L27.8569 34.9387L27.5813 35.9Z" fill="#282930"/>
</svg>
