<svg width="164" height="40" viewBox="0 0 164 40" fill="none" xmlns="http://www.w3.org/2000/svg">
<g clip-path="url(#clip0_2001_375)">
<path d="M48.1055 28.2463H59.7729V24.7341H52.2523V11.5049H48.1055V28.2463Z" fill="#92918F"/>
<path d="M66.6851 25.9053C65.0216 25.9053 64.1548 24.4536 64.1548 22.276C64.1548 20.0985 65.0216 18.6233 66.6851 18.6233C68.3485 18.6233 69.2388 20.0985 69.2388 22.276C69.2388 24.4536 68.3485 25.9053 66.6851 25.9053ZM66.7085 28.6214C70.5742 28.6214 73.1045 25.8819 73.1045 22.276C73.1045 18.6702 70.5742 15.9307 66.7085 15.9307C62.8662 15.9307 60.2891 18.6702 60.2891 22.276C60.2891 25.8819 62.8662 28.6214 66.7085 28.6214Z" fill="#92918F"/>
<path d="M79.7945 32.3911C81.5751 32.3911 83.1448 31.9931 84.1991 31.0565C85.1597 30.1902 85.7923 28.8789 85.7923 27.076V16.2584H82.1374V17.5463H82.0906C81.3877 16.5394 80.31 15.9072 78.7168 15.9072C75.7414 15.9072 73.6797 18.3892 73.6797 21.9014C73.6797 25.5775 76.1865 27.5911 78.8808 27.5911C80.3334 27.5911 81.2471 27.0058 81.95 26.2097H82.0437V27.4038C82.0437 28.8555 81.3643 29.6984 79.7477 29.6984C78.4825 29.6984 77.85 29.1599 77.6391 28.5277H73.9374C74.3123 31.0331 76.4911 32.3911 79.7945 32.3911ZM79.7711 24.758C78.342 24.758 77.4048 23.5872 77.4048 21.7843C77.4048 19.958 78.342 18.7872 79.7711 18.7872C81.3643 18.7872 82.2077 20.1453 82.2077 21.7609C82.2077 23.4467 81.4346 24.758 79.7711 24.758Z" fill="#92918F"/>
<path d="M93.3062 25.9053C91.6427 25.9053 90.7759 24.4536 90.7759 22.276C90.7759 20.0985 91.6427 18.6233 93.3062 18.6233C94.9696 18.6233 95.8599 20.0985 95.8599 22.276C95.8599 24.4536 94.9696 25.9053 93.3062 25.9053ZM93.3296 28.6214C97.1953 28.6214 99.7251 25.8819 99.7251 22.276C99.7251 18.6702 97.1953 15.9307 93.3296 15.9307C89.4873 15.9307 86.9102 18.6702 86.9102 22.276C86.9102 25.8819 89.4873 28.6214 93.3296 28.6214Z" fill="#92918F"/>
<path d="M100.844 28.2463H104.663V16.2581H100.844V28.2463ZM100.844 14.5956H104.663V11.5049H100.844V14.5956Z" fill="#92918F"/>
<path d="M106.316 32.2038H110.135V27.0058H110.182C110.932 28.0126 112.033 28.6214 113.579 28.6214C116.719 28.6214 118.804 26.1394 118.804 22.2526C118.804 18.6467 116.859 15.9072 113.673 15.9072C112.033 15.9072 110.862 16.6331 110.042 17.7102H109.971V16.2584H106.316V32.2038ZM112.595 25.6711C110.955 25.6711 110.018 24.3365 110.018 22.3931C110.018 20.4497 110.862 18.9745 112.525 18.9745C114.165 18.9745 114.938 20.3326 114.938 22.3931C114.938 24.4302 114.048 25.6711 112.595 25.6711Z" fill="#92918F"/>
<path d="M125.021 28.6214C128.161 28.6214 130.48 27.2633 130.48 24.6409C130.48 21.5736 127.997 21.035 125.888 20.6838C124.365 20.4028 123.006 20.2858 123.006 19.4428C123.006 18.6936 123.733 18.3423 124.67 18.3423C125.724 18.3423 126.45 18.6702 126.591 19.7472H130.105C129.918 17.3823 128.09 15.9072 124.693 15.9072C121.858 15.9072 119.515 17.2184 119.515 19.7472C119.515 22.557 121.741 23.1189 123.826 23.4702C125.419 23.7511 126.872 23.8682 126.872 24.9453C126.872 25.718 126.146 26.1394 124.998 26.1394C123.733 26.1394 122.936 25.5541 122.795 24.3599H119.188C119.305 27.0058 121.507 28.6214 125.021 28.6214Z" fill="#92918F"/>
<path d="M135.67 28.5973C137.334 28.5973 138.388 27.9417 139.255 26.771H139.325V28.2461H142.98V16.2578H139.161V22.9544C139.161 24.3827 138.365 25.3661 137.053 25.3661C135.834 25.3661 135.249 24.6403 135.249 23.329V16.2578H131.453V24.1251C131.453 26.7944 132.906 28.5973 135.67 28.5973Z" fill="#92918F"/>
<path d="M144.641 28.2467H148.459V21.5267C148.459 20.0984 149.162 19.0916 150.357 19.0916C151.505 19.0916 152.044 19.8409 152.044 21.1287V28.2467H155.863V21.5267C155.863 20.0984 156.542 19.0916 157.761 19.0916C158.909 19.0916 159.447 19.8409 159.447 21.1287V28.2467H163.266V20.4497C163.266 17.757 161.907 15.9072 159.19 15.9072C157.643 15.9072 156.355 16.5628 155.418 18.0145H155.371C154.762 16.7267 153.567 15.9072 151.997 15.9072C150.263 15.9072 149.115 16.7267 148.366 17.9677H148.295V16.2584H144.641V28.2467Z" fill="#92918F"/>
<path d="M24.8076 1.92855L20.9682 0.900391L17.7327 12.9683L14.8117 2.07331L10.9722 3.10146L14.1282 14.8727L6.26734 7.01647L3.4567 9.82543L12.0791 18.4428L1.34127 15.5673L0.3125 19.4044L12.045 22.5462C11.9106 21.9672 11.8396 21.3639 11.8396 20.744C11.8396 16.3561 15.3988 12.799 19.7893 12.799C24.1798 12.799 27.739 16.3561 27.739 20.744C27.739 21.3599 27.6688 21.9595 27.5361 22.5351L38.1988 25.3904L39.2275 21.5533L27.4484 18.399L38.187 15.5233L37.1581 11.6862L25.3795 14.8404L33.2404 6.98421L30.4298 4.17525L21.9269 12.673L24.8076 1.92855Z" fill="#92918F"/>
<path d="M27.5245 22.5801C27.1954 23.9709 26.5004 25.2204 25.5469 26.2214L33.2715 33.9415L36.0821 31.1326L27.5245 22.5801Z" fill="#92918F"/>
<path d="M25.4663 26.3018C24.5013 27.2868 23.2817 28.022 21.9141 28.4008L24.7249 38.8847L28.5643 37.8565L25.4663 26.3018Z" fill="#92918F"/>
<path d="M21.7703 28.4394C21.1358 28.6024 20.4707 28.6891 19.7853 28.6891C19.051 28.6891 18.34 28.5896 17.6649 28.4033L14.8516 38.8968L18.6909 39.9249L21.7703 28.4394Z" fill="#92918F"/>
<path d="M17.5305 28.3644C16.1837 27.9668 14.9858 27.2223 14.0405 26.2344L6.29688 33.9734L9.10751 36.7824L17.5305 28.3644Z" fill="#92918F"/>
<path d="M13.9771 26.1656C13.0479 25.1715 12.3712 23.9387 12.049 22.5693L1.35156 25.434L2.38032 29.2711L13.9771 26.1656Z" fill="#92918F"/>
</g>
<defs>
<clipPath id="clip0_2001_375">
<rect width="164" height="40" fill="white"/>
</clipPath>
</defs>
</svg>
