<svg width="166" height="40" viewBox="0 0 166 40" fill="none" xmlns="http://www.w3.org/2000/svg">
<g clip-path="url(#clip0_2001_391)">
<path d="M50.6406 27.4514H62.3114V23.9392H54.7887V10.71H50.6406V27.4514Z" fill="#92918F"/>
<path d="M69.226 25.1104C67.5621 25.1104 66.6949 23.6587 66.6949 21.4811C66.6949 19.3035 67.5621 17.8284 69.226 17.8284C70.8899 17.8284 71.7804 19.3035 71.7804 21.4811C71.7804 23.6587 70.8899 25.1104 69.226 25.1104ZM69.2494 27.8265C73.1162 27.8265 75.6472 25.087 75.6472 21.4811C75.6472 17.8753 73.1162 15.1357 69.2494 15.1357C65.406 15.1357 62.8281 17.8753 62.8281 21.4811C62.8281 25.087 65.406 27.8265 69.2494 27.8265Z" fill="#92918F"/>
<path d="M82.3393 31.5962C84.1203 31.5962 85.6905 31.1982 86.7451 30.2616C87.7059 29.3952 88.3387 28.084 88.3387 26.2811V15.4635H84.6828V16.7513H84.6359C83.9329 15.7445 82.8548 15.1123 81.2612 15.1123C78.285 15.1123 76.2227 17.5943 76.2227 21.1065C76.2227 24.7825 78.7302 26.7962 81.4253 26.7962C82.8783 26.7962 83.7923 26.2108 84.4953 25.4147H84.5891V26.6089C84.5891 28.0606 83.9094 28.9035 82.2924 28.9035C81.0269 28.9035 80.3941 28.365 80.1832 27.7328H76.4804C76.8554 30.2382 79.0349 31.5962 82.3393 31.5962ZM82.3158 23.963C80.8863 23.963 79.9489 22.7923 79.9489 20.9894C79.9489 19.163 80.8863 17.9923 82.3158 17.9923C83.9094 17.9923 84.7531 19.3504 84.7531 20.966C84.7531 22.6518 83.9797 23.963 82.3158 23.963Z" fill="#92918F"/>
<path d="M95.8549 25.1104C94.191 25.1104 93.3239 23.6587 93.3239 21.4811C93.3239 19.3035 94.191 17.8284 95.8549 17.8284C97.5188 17.8284 98.4093 19.3035 98.4093 21.4811C98.4093 23.6587 97.5188 25.1104 95.8549 25.1104ZM95.8783 27.8265C99.7451 27.8265 102.276 25.087 102.276 21.4811C102.276 17.8753 99.7451 15.1357 95.8783 15.1357C92.0349 15.1357 89.457 17.8753 89.457 21.4811C89.457 25.087 92.0349 27.8265 95.8783 27.8265Z" fill="#92918F"/>
<path d="M103.391 27.4514H107.211V15.4631H103.391V27.4514ZM103.391 13.8007H107.211V10.71H103.391V13.8007Z" fill="#92918F"/>
<path d="M108.871 31.4089H112.691V26.2108H112.738C113.488 27.2177 114.589 27.8264 116.136 27.8264C119.276 27.8264 121.362 25.3445 121.362 21.4577C121.362 17.8518 119.417 15.1123 116.23 15.1123C114.589 15.1123 113.417 15.8382 112.597 16.9152H112.527V15.4635H108.871V31.4089ZM115.152 24.8762C113.511 24.8762 112.574 23.5416 112.574 21.5982C112.574 19.6547 113.417 18.1796 115.081 18.1796C116.722 18.1796 117.495 19.5377 117.495 21.5982C117.495 23.6352 116.604 24.8762 115.152 24.8762Z" fill="#92918F"/>
<path d="M127.581 27.8265C130.722 27.8265 133.042 26.4684 133.042 23.846C133.042 20.7786 130.558 20.2401 128.449 19.8889C126.925 19.6079 125.566 19.4908 125.566 18.6479C125.566 17.8986 126.293 17.5474 127.23 17.5474C128.285 17.5474 129.011 17.8752 129.152 18.9523H132.667C132.479 16.5874 130.652 15.1123 127.253 15.1123C124.418 15.1123 122.074 16.4235 122.074 18.9523C122.074 21.7621 124.301 22.324 126.386 22.6752C127.98 22.9562 129.433 23.0733 129.433 24.1504C129.433 24.923 128.706 25.3445 127.558 25.3445C126.293 25.3445 125.496 24.7591 125.355 23.565H121.746C121.863 26.2108 124.066 27.8265 127.581 27.8265Z" fill="#92918F"/>
<path d="M138.23 27.8034C139.894 27.8034 140.949 27.1478 141.816 25.977H141.886V27.4522H145.542V15.4639H141.722V22.1605C141.722 23.5887 140.925 24.5722 139.613 24.5722C138.394 24.5722 137.808 23.8463 137.808 22.5351V15.4639H134.012V23.3312C134.012 26.0005 135.465 27.8034 138.23 27.8034Z" fill="#92918F"/>
<path d="M147.203 27.4518H151.023V20.7318C151.023 19.3035 151.726 18.2967 152.921 18.2967C154.069 18.2967 154.608 19.046 154.608 20.3338V27.4518H158.428V20.7318C158.428 19.3035 159.108 18.2967 160.327 18.2967C161.475 18.2967 162.014 19.046 162.014 20.3338V27.4518H165.834V19.6547C165.834 16.9621 164.475 15.1123 161.756 15.1123C160.209 15.1123 158.921 15.7679 157.983 17.2196H157.936C157.327 15.9318 156.132 15.1123 154.562 15.1123C152.827 15.1123 151.679 15.9318 150.929 17.1728H150.859V15.4635H147.203V27.4518Z" fill="#92918F"/>
<path fill-rule="evenodd" clip-rule="evenodd" d="M20.1976 39.1591C30.9834 39.1591 39.7271 30.4232 39.7271 19.6469C39.7271 8.87068 30.9834 0.134766 20.1976 0.134766C9.41181 0.134766 0.668213 8.87068 0.668213 19.6469C0.668213 30.4232 9.41181 39.1591 20.1976 39.1591ZM26.2901 9.22437C26.5867 8.17189 25.5644 7.54953 24.6308 8.21408L11.598 17.4904C10.5855 18.2111 10.7447 19.6469 11.8372 19.6469H15.2691V19.6204H21.9577L16.5078 21.5417L14.1051 30.0696C13.8086 31.1221 14.8308 31.7444 15.7645 31.0798L28.7973 21.8035C29.8098 21.0828 29.6505 19.6469 28.5581 19.6469H23.3537L26.2901 9.22437Z" fill="#92918F"/>
</g>
<defs>
<clipPath id="clip0_2001_391">
<rect width="166" height="40" fill="white"/>
</clipPath>
</defs>
</svg>
