<svg width="30" height="30" viewBox="0 0 30 30" fill="none" xmlns="http://www.w3.org/2000/svg">
<path d="M16.5193 24.0845C16.5462 21.3309 15.8481 19.0917 14.9601 19.083C14.0721 19.0744 13.3304 21.2996 13.3035 24.0531C13.2765 26.8067 13.9746 29.0459 14.8626 29.0546C15.7507 29.0633 16.4924 26.8381 16.5193 24.0845Z" fill="#2075FF"/>
<path d="M11.3684 23.4572C12.8799 21.1554 13.5033 18.8942 12.761 18.4068C12.0186 17.9193 10.1916 19.3902 8.68015 21.692C7.16869 23.9939 6.54523 26.255 7.28755 26.7425C8.02993 27.2299 9.85693 25.7591 11.3684 23.4572Z" fill="#2075FF"/>
<path d="M7.36576 20.156C9.8818 19.0368 11.6288 17.4718 11.2679 16.6604C10.907 15.8489 8.57476 16.0984 6.05872 17.2176C3.54271 18.3367 1.79567 19.9017 2.1566 20.7132C2.51752 21.5246 4.84975 21.2751 7.36576 20.156Z" fill="#2075FF"/>
<path d="M10.9693 14.3842C11.1044 13.5064 9.00757 12.4553 6.28597 12.0364C3.5643 11.6175 1.24845 11.9895 1.11336 12.8672C0.97826 13.7449 3.07507 14.796 5.79672 15.2149C8.51833 15.6339 10.8342 15.2619 10.9693 14.3842Z" fill="#2075FF"/>
<path d="M11.9455 12.2952C12.5337 11.6298 11.3377 9.61203 9.2744 7.78845C7.21106 5.96488 5.06163 5.02603 4.47352 5.69146C3.88542 6.35691 5.08134 8.37465 7.1447 10.1982C9.20804 12.0218 11.3575 12.9606 11.9455 12.2952Z" fill="#2075FF"/>
<path d="M13.8943 11.0706C14.7488 10.8288 14.8337 8.48475 14.0839 5.83512C13.3342 3.18546 12.0336 1.23352 11.1791 1.47533C10.3246 1.71713 10.2397 4.06112 10.9894 6.71079C11.7392 9.36039 13.0398 11.3124 13.8943 11.0706Z" fill="#2075FF"/>
<path d="M19.1748 6.79465C19.9767 4.16029 19.9381 1.81509 19.0885 1.55648C18.2389 1.29787 16.9001 3.22378 16.0982 5.85814C15.2964 8.49247 15.335 10.8377 16.1846 11.0963C17.0342 11.3549 18.373 9.42902 19.1748 6.79465Z" fill="#2075FF"/>
<path d="M22.948 10.3532C25.0466 8.57029 26.2818 6.57631 25.7068 5.89953C25.1318 5.22273 22.9644 6.11941 20.8658 7.90225C18.7672 9.68515 17.5321 11.6791 18.1071 12.3559C18.6821 13.0327 20.8495 12.1361 22.948 10.3532Z" fill="#2075FF"/>
<path d="M24.2009 15.3901C26.9303 15.0249 29.0474 14.0153 28.9296 13.1351C28.8119 12.2549 26.5038 11.8373 23.7744 12.2024C21.0451 12.5676 18.9279 13.5772 19.0457 14.4574C19.1635 15.3376 21.4715 15.7552 24.2009 15.3901Z" fill="#2075FF"/>
<path d="M27.7184 20.9638C28.0953 20.1597 26.3795 18.5605 23.886 17.3919C21.3926 16.2234 19.0657 15.928 18.6889 16.7321C18.312 17.5363 20.0278 19.1355 22.5213 20.304C25.0147 21.4725 27.3416 21.768 27.7184 20.9638Z" fill="#2075FF"/>
<path d="M22.476 26.8988C23.2278 26.4261 22.649 24.1531 21.1833 21.8219C19.7175 19.4907 17.9198 17.9842 17.168 18.4569C16.4162 18.9295 16.995 21.2026 18.4607 23.5338C19.9264 25.8649 21.7242 27.3715 22.476 26.8988Z" fill="#2075FF"/>
</svg>
