<svg width="53" height="53" viewBox="0 0 53 53" fill="none" xmlns="http://www.w3.org/2000/svg">
<path d="M26.2648 9.26496C21.6991 10.044 17.584 11.0888 12.4503 12.7112C10.6181 13.2902 9.47663 15.2657 9.75088 17.407C10.8747 26.181 12.297 32.1958 14.727 40.5875C15.3385 42.6991 17.2085 44.0919 19.1522 43.8697C26.8595 42.9889 32.1929 41.857 39.6886 39.5009C41.5503 38.9157 42.6941 36.8918 42.3967 34.7192C41.5089 28.2329 40.6087 23.2334 39.1882 17.6575M26.2648 9.26496L39.1882 17.6575M26.2648 9.26496L28.0105 17.4776C28.2975 18.8281 29.6251 19.6902 30.9756 19.4032L39.1882 17.6575" stroke="#282930" stroke-width="2"/>
<path d="M19.1108 28.5146L33.457 25.4653" stroke="#282930" stroke-width="2" stroke-linecap="round"/>
<path d="M20.4448 34.791L29.4112 32.8852" stroke="#282930" stroke-width="2" stroke-linecap="round"/>
</svg>
