<svg width="53" height="53" viewBox="0 0 53 53" fill="none" xmlns="http://www.w3.org/2000/svg">
<path d="M18.1688 41.3904L22.2264 40.5279C22.7019 40.4269 23.1918 40.4092 23.677 40.4755L30.1926 41.3664C30.6778 41.4328 31.1677 41.415 31.6432 41.314L38.1835 39.9238C39.8012 39.5799 41.1009 38.3129 41.4818 36.6052C42.6772 31.2463 42.8348 27.3712 42.2211 22.6811C41.8729 20.0196 39.3995 18.2934 36.9476 18.8145L30.6977 20.143M30.6977 20.143L28.2264 20.6683M30.6977 20.143C31.4273 16.9462 31.813 17.5563 31.552 13.8896C31.4185 12.0155 30.0886 10.4562 28.3564 10.062L26.6863 9.68188C25.8341 9.48792 25.0586 10.2435 25.0709 11.1664C25.0962 13.0768 24.828 15.9172 23.1627 17.0986C19.4218 19.7521 18.5116 22.4191 15.9725 26.6757M10.4146 26.0913L14.8421 24.2914C15.032 24.2142 15.2494 24.3251 15.3174 24.5333C17.5065 31.2267 17.6992 35.7297 18.2807 42.7664C18.2986 42.9826 18.1458 43.1689 17.9428 43.1755L13.1956 43.331C12.9991 43.3375 12.8296 43.1726 12.8145 42.9633C12.3495 36.5013 11.798 32.7768 10.2041 26.5446C10.1558 26.3558 10.2457 26.16 10.4146 26.0913Z" stroke="#282930" stroke-width="2" stroke-linecap="round"/>
</svg>
