<svg width="121" height="121" viewBox="0 0 121 121" fill="none" xmlns="http://www.w3.org/2000/svg">
<rect y="23.7939" width="100" height="100" rx="20" transform="rotate(-13.7647 0 23.7939)" fill="white" stroke="black" stroke-opacity="0.05"/>
<path d="M52.0755 75.2976L56.1332 74.4352C56.6087 74.3341 57.0986 74.3164 57.5838 74.3827L64.0993 75.2736C64.5845 75.34 65.0744 75.3223 65.5499 75.2212L72.0902 73.831C73.7079 73.4872 75.0076 72.2201 75.3885 70.5125C76.5839 65.1535 76.7415 61.2784 76.1279 56.5883C75.7797 53.9268 73.3062 52.2006 70.8543 52.7218L64.6044 54.0502M64.6044 54.0502L62.1331 54.5755M64.6044 54.0502C65.3341 50.8534 65.7197 51.4635 65.4587 47.7968C65.3253 45.9227 63.9953 44.3635 62.2631 43.9692L60.593 43.5891C59.7408 43.3952 58.9654 44.1507 58.9776 45.0737C59.0029 46.984 58.7348 49.8245 57.0694 51.0058C53.3285 53.6594 52.4184 56.3264 49.8792 60.5829M44.3213 59.9986L48.7488 58.1986C48.9388 58.1214 49.1561 58.2323 49.2242 58.4405C51.4132 65.1339 51.606 69.637 52.1874 76.6737C52.2053 76.8898 52.0525 77.0761 51.8495 77.0828L47.1023 77.2383C46.9059 77.2447 46.7363 77.0799 46.7213 76.8705C46.2562 70.4086 45.7047 66.684 44.1108 60.4518C44.0626 60.263 44.1525 60.0672 44.3213 59.9986Z" stroke="#282930" stroke-width="2" stroke-linecap="round"/>
</svg>
