<svg width="125" height="34" viewBox="0 0 125 34" fill="none" xmlns="http://www.w3.org/2000/svg">
<path d="M16.5193 26.0845C16.5462 23.3309 15.8481 21.0917 14.9601 21.083C14.0721 21.0744 13.3304 23.2996 13.3035 26.0531C13.2765 28.8067 13.9746 31.0459 14.8626 31.0546C15.7507 31.0633 16.4924 28.8381 16.5193 26.0845Z" fill="#2075FF"/>
<path d="M11.3684 25.4572C12.8799 23.1554 13.5033 20.8942 12.761 20.4068C12.0186 19.9193 10.1916 21.3902 8.68015 23.692C7.16869 25.9939 6.54523 28.255 7.28755 28.7425C8.02993 29.2299 9.85693 27.7591 11.3684 25.4572Z" fill="#2075FF"/>
<path d="M7.36576 22.156C9.8818 21.0368 11.6288 19.4718 11.2679 18.6604C10.907 17.8489 8.57476 18.0984 6.05872 19.2176C3.54271 20.3367 1.79567 21.9017 2.1566 22.7132C2.51752 23.5246 4.84975 23.2751 7.36576 22.156Z" fill="#2075FF"/>
<path d="M10.9693 16.3842C11.1044 15.5064 9.00757 14.4553 6.28597 14.0364C3.5643 13.6175 1.24845 13.9895 1.11336 14.8672C0.97826 15.7449 3.07507 16.796 5.79672 17.2149C8.51833 17.6339 10.8342 17.2619 10.9693 16.3842Z" fill="#2075FF"/>
<path d="M11.9455 14.2952C12.5337 13.6298 11.3377 11.612 9.2744 9.78845C7.21106 7.96488 5.06163 7.02603 4.47352 7.69146C3.88542 8.35691 5.08134 10.3747 7.1447 12.1982C9.20804 14.0218 11.3575 14.9606 11.9455 14.2952Z" fill="#2075FF"/>
<path d="M13.8943 13.0706C14.7488 12.8288 14.8337 10.4848 14.0839 7.83512C13.3342 5.18546 12.0336 3.23352 11.1791 3.47533C10.3246 3.71713 10.2397 6.06112 10.9894 8.71079C11.7392 11.3604 13.0398 13.3124 13.8943 13.0706Z" fill="#2075FF"/>
<path d="M19.1748 8.79465C19.9767 6.16029 19.9381 3.81509 19.0885 3.55648C18.2389 3.29787 16.9001 5.22378 16.0982 7.85814C15.2964 10.4925 15.335 12.8377 16.1846 13.0963C17.0342 13.3549 18.373 11.429 19.1748 8.79465Z" fill="#2075FF"/>
<path d="M22.948 12.3532C25.0466 10.5703 26.2818 8.57631 25.7068 7.89953C25.1318 7.22273 22.9644 8.11941 20.8658 9.90225C18.7672 11.6852 17.5321 13.6791 18.1071 14.3559C18.6821 15.0327 20.8495 14.1361 22.948 12.3532Z" fill="#2075FF"/>
<path d="M24.2009 17.3901C26.9303 17.0249 29.0474 16.0153 28.9296 15.1351C28.8119 14.2549 26.5038 13.8373 23.7744 14.2024C21.0451 14.5676 18.9279 15.5772 19.0457 16.4574C19.1635 17.3376 21.4715 17.7552 24.2009 17.3901Z" fill="#2075FF"/>
<path d="M27.7184 22.9638C28.0953 22.1597 26.3795 20.5605 23.886 19.3919C21.3926 18.2234 19.0657 17.928 18.6889 18.7321C18.312 19.5363 20.0278 21.1355 22.5213 22.304C25.0147 23.4725 27.3416 23.768 27.7184 22.9638Z" fill="#2075FF"/>
<path d="M22.476 28.8988C23.2278 28.4261 22.649 26.1531 21.1833 23.8219C19.7175 21.4907 17.9198 19.9842 17.168 20.4569C16.4162 20.9295 16.995 23.2026 18.4607 25.5338C19.9264 27.8649 21.7242 29.3715 22.476 28.8988Z" fill="#2075FF"/>
<path d="M39.68 26V8.72H46.664C46.832 8.72 47.04 8.728 47.288 8.744C47.536 8.752 47.772 8.776 47.996 8.816C48.956 8.968 49.756 9.296 50.396 9.8C51.044 10.304 51.528 10.94 51.848 11.708C52.168 12.476 52.328 13.324 52.328 14.252C52.328 15.628 51.976 16.816 51.272 17.816C50.568 18.808 49.512 19.428 48.104 19.676L47.084 19.796H42.188V26H39.68ZM49.784 26L46.376 18.968L48.908 18.32L52.652 26H49.784ZM42.188 17.42H46.568C46.728 17.42 46.904 17.412 47.096 17.396C47.296 17.38 47.484 17.352 47.66 17.312C48.172 17.192 48.584 16.972 48.896 16.652C49.208 16.324 49.432 15.948 49.568 15.524C49.704 15.1 49.772 14.676 49.772 14.252C49.772 13.828 49.704 13.408 49.568 12.992C49.432 12.568 49.208 12.196 48.896 11.876C48.584 11.548 48.172 11.324 47.66 11.204C47.484 11.156 47.296 11.124 47.096 11.108C46.904 11.092 46.728 11.084 46.568 11.084H42.188V17.42ZM60.7494 26.36C59.4614 26.36 58.3294 26.08 57.3534 25.52C56.3854 24.952 55.6294 24.164 55.0854 23.156C54.5494 22.14 54.2814 20.964 54.2814 19.628C54.2814 18.212 54.5454 16.984 55.0734 15.944C55.6094 14.904 56.3534 14.1 57.3054 13.532C58.2574 12.964 59.3654 12.68 60.6294 12.68C61.9494 12.68 63.0734 12.988 64.0014 13.604C64.9294 14.212 65.6214 15.08 66.0774 16.208C66.5414 17.336 66.7254 18.676 66.6294 20.228H64.1214V19.316C64.1054 17.812 63.8174 16.7 63.2574 15.98C62.7054 15.26 61.8614 14.9 60.7254 14.9C59.4694 14.9 58.5254 15.296 57.8934 16.088C57.2614 16.88 56.9454 18.024 56.9454 19.52C56.9454 20.944 57.2614 22.048 57.8934 22.832C58.5254 23.608 59.4374 23.996 60.6294 23.996C61.4134 23.996 62.0894 23.82 62.6574 23.468C63.2334 23.108 63.6814 22.596 64.0014 21.932L66.4614 22.712C65.9574 23.872 65.1934 24.772 64.1694 25.412C63.1454 26.044 62.0054 26.36 60.7494 26.36ZM56.1294 20.228V18.272H65.3814V20.228H56.1294ZM74.7661 26.36C73.5261 26.36 72.4861 26.06 71.6461 25.46C70.8061 24.852 70.1701 24.032 69.7381 23C69.3061 21.968 69.0901 20.804 69.0901 19.508C69.0901 18.212 69.3021 17.048 69.7261 16.016C70.1581 14.984 70.7901 14.172 71.6221 13.58C72.4621 12.98 73.4941 12.68 74.7181 12.68C75.9341 12.68 76.9821 12.98 77.8621 13.58C78.7501 14.172 79.4341 14.984 79.9141 16.016C80.3941 17.04 80.6341 18.204 80.6341 19.508C80.6341 20.804 80.3941 21.972 79.9141 23.012C79.4421 24.044 78.7661 24.86 77.8861 25.46C77.0141 26.06 75.9741 26.36 74.7661 26.36ZM68.6701 31.76V13.04H70.9021V22.364H71.1901V31.76H68.6701ZM74.4181 24.092C75.2181 24.092 75.8781 23.888 76.3981 23.48C76.9261 23.072 77.3181 22.524 77.5741 21.836C77.8381 21.14 77.9701 20.364 77.9701 19.508C77.9701 18.66 77.8381 17.892 77.5741 17.204C77.3181 16.516 76.9221 15.968 76.3861 15.56C75.8501 15.152 75.1661 14.948 74.3341 14.948C73.5501 14.948 72.9021 15.14 72.3901 15.524C71.8861 15.908 71.5101 16.444 71.2621 17.132C71.0221 17.82 70.9021 18.612 70.9021 19.508C70.9021 20.404 71.0221 21.196 71.2621 21.884C71.5021 22.572 71.8821 23.112 72.4021 23.504C72.9221 23.896 73.5941 24.092 74.4181 24.092ZM89.0797 26.36C87.8397 26.36 86.7997 26.06 85.9597 25.46C85.1197 24.852 84.4837 24.032 84.0517 23C83.6197 21.968 83.4037 20.804 83.4037 19.508C83.4037 18.212 83.6157 17.048 84.0397 16.016C84.4717 14.984 85.1037 14.172 85.9357 13.58C86.7757 12.98 87.8077 12.68 89.0317 12.68C90.2477 12.68 91.2957 12.98 92.1757 13.58C93.0637 14.172 93.7477 14.984 94.2277 16.016C94.7077 17.04 94.9477 18.204 94.9477 19.508C94.9477 20.804 94.7077 21.972 94.2277 23.012C93.7557 24.044 93.0797 24.86 92.1997 25.46C91.3277 26.06 90.2877 26.36 89.0797 26.36ZM82.9837 31.76V13.04H85.2157V22.364H85.5037V31.76H82.9837ZM88.7317 24.092C89.5317 24.092 90.1917 23.888 90.7117 23.48C91.2397 23.072 91.6317 22.524 91.8877 21.836C92.1517 21.14 92.2837 20.364 92.2837 19.508C92.2837 18.66 92.1517 17.892 91.8877 17.204C91.6317 16.516 91.2357 15.968 90.6997 15.56C90.1637 15.152 89.4797 14.948 88.6477 14.948C87.8637 14.948 87.2157 15.14 86.7037 15.524C86.1997 15.908 85.8237 16.444 85.5757 17.132C85.3357 17.82 85.2157 18.612 85.2157 19.508C85.2157 20.404 85.3357 21.196 85.5757 21.884C85.8157 22.572 86.1957 23.112 86.7157 23.504C87.2357 23.896 87.9077 24.092 88.7317 24.092ZM102.937 26.36C101.641 26.36 100.517 26.068 99.5652 25.484C98.6132 24.9 97.8772 24.096 97.3572 23.072C96.8452 22.04 96.5892 20.852 96.5892 19.508C96.5892 18.156 96.8532 16.968 97.3812 15.944C97.9092 14.912 98.6492 14.112 99.6012 13.544C100.553 12.968 101.665 12.68 102.937 12.68C104.233 12.68 105.357 12.972 106.309 13.556C107.261 14.14 107.997 14.944 108.517 15.968C109.037 16.992 109.297 18.172 109.297 19.508C109.297 20.86 109.033 22.052 108.505 23.084C107.985 24.108 107.249 24.912 106.297 25.496C105.345 26.072 104.225 26.36 102.937 26.36ZM102.937 23.996C104.177 23.996 105.101 23.58 105.709 22.748C106.325 21.908 106.633 20.828 106.633 19.508C106.633 18.156 106.321 17.076 105.697 16.268C105.081 15.452 104.161 15.044 102.937 15.044C102.097 15.044 101.405 15.236 100.861 15.62C100.317 15.996 99.9132 16.52 99.6492 17.192C99.3852 17.856 99.2532 18.628 99.2532 19.508C99.2532 20.868 99.5652 21.956 100.189 22.772C100.813 23.588 101.729 23.996 102.937 23.996ZM117.274 26.36C115.978 26.36 114.854 26.068 113.902 25.484C112.95 24.9 112.214 24.096 111.694 23.072C111.182 22.04 110.926 20.852 110.926 19.508C110.926 18.156 111.19 16.968 111.718 15.944C112.246 14.912 112.986 14.112 113.938 13.544C114.89 12.968 116.002 12.68 117.274 12.68C118.57 12.68 119.694 12.972 120.646 13.556C121.598 14.14 122.334 14.944 122.854 15.968C123.374 16.992 123.634 18.172 123.634 19.508C123.634 20.86 123.37 22.052 122.842 23.084C122.322 24.108 121.586 24.912 120.634 25.496C119.682 26.072 118.562 26.36 117.274 26.36ZM117.274 23.996C118.514 23.996 119.438 23.58 120.046 22.748C120.662 21.908 120.97 20.828 120.97 19.508C120.97 18.156 120.658 17.076 120.034 16.268C119.418 15.452 118.498 15.044 117.274 15.044C116.434 15.044 115.742 15.236 115.198 15.62C114.654 15.996 114.25 16.52 113.986 17.192C113.722 17.856 113.59 18.628 113.59 19.508C113.59 20.868 113.902 21.956 114.526 22.772C115.15 23.588 116.066 23.996 117.274 23.996Z" fill="#0C0C13"/>
</svg>
