<svg width="23" height="23" viewBox="0 0 23 23" fill="none" xmlns="http://www.w3.org/2000/svg">
<g clip-path="url(#clip0_2001_430)">
<path d="M22.3509 9.94974H15.8259L21.4857 6.66921L20.26 4.50622L14.6002 7.78675L17.8807 2.12694L15.7177 0.865195L12.4372 6.52501V0H9.94974V6.52501L6.66921 0.865195L4.50622 2.09089L7.78675 7.7507L2.12694 4.50622L0.901245 6.66921L6.56106 9.94974H0V12.4372H6.52501L0.865195 15.6817L2.09089 17.8446L7.7507 14.5641L4.47017 20.2239L6.63316 21.4496L9.91369 15.7898V22.3509H12.4011V15.8259L15.6817 21.4857L17.8446 20.26L14.5641 14.6002L20.2239 17.8807L21.4496 15.7177L15.7898 12.4372H22.3509V9.94974ZM11.1754 14.5641C9.30084 14.5641 7.78675 13.05 7.78675 11.1754C7.78675 9.30084 9.30084 7.78675 11.1754 7.78675C13.05 7.78675 14.5641 9.30084 14.5641 11.1754C14.5641 13.05 13.05 14.5641 11.1754 14.5641Z" fill="#625DF5"/>
</g>
<defs>
<clipPath id="clip0_2001_430">
<rect width="22.3509" height="22.3509" fill="white"/>
</clipPath>
</defs>
</svg>
