<svg width="21" height="23" viewBox="0 0 21 23" fill="none" xmlns="http://www.w3.org/2000/svg">
<path d="M9.48654 10.3086L0.0839844 20.2283C0.189563 20.6051 0.379302 20.9526 0.638697 21.2443C0.898093 21.5359 1.22028 21.764 1.58062 21.9111C1.94096 22.0581 2.32993 22.1202 2.71777 22.0927C3.10562 22.0652 3.48208 21.9487 3.81838 21.7522L14.398 15.6847L9.48654 10.3086Z" fill="#EA4335"/>
<path d="M18.9944 8.62109L14.4192 5.98242L9.26953 10.5331L14.4402 15.6693L18.9804 13.0589C19.3826 12.8468 19.7195 12.5279 19.9546 12.1368C20.1896 11.7456 20.3139 11.2972 20.3139 10.84C20.3139 10.3828 20.1896 9.93432 19.9546 9.54318C19.7195 9.15204 19.3826 8.83316 18.9804 8.62109H18.9944Z" fill="#FBBC04"/>
<path d="M0.0841041 1.4043C0.0272676 1.61588 -0.00101203 1.8342 2.76554e-05 2.05338V19.5787C0.000596139 19.7977 0.0288486 20.0159 0.0841041 20.2278L9.80895 10.562L0.0841041 1.4043Z" fill="#4285F4"/>
<path d="M9.5566 10.8158L14.419 5.98292L3.85341 -0.112832C3.45593 -0.347251 3.00386 -0.471405 2.54322 -0.472651C1.9869 -0.473761 1.44548 -0.291664 1.00149 0.0458828C0.557497 0.38343 0.23529 0.85791 0.0839844 1.397L9.5566 10.8158Z" fill="#34A853"/>
</svg>
